<?xml version="1.0" encoding="UTF-8" standalone="no"?><!DOCTYPE svg PUBLIC "-//W3C//DTD SVG 1.1//EN" "http://www.w3.org/Graphics/SVG/1.1/DTD/svg11.dtd"><svg width="100%" height="100%" viewBox="0 0 219 219" version="1.1" xmlns="http://www.w3.org/2000/svg" xmlns:xlink="http://www.w3.org/1999/xlink" xml:space="preserve" xmlns:serif="http://www.serif.com/" style="fill-rule:evenodd;clip-rule:evenodd;stroke-linejoin:round;stroke-miterlimit:2;"><rect id="Artboard1" x="0" y="0" width="218.905" height="219" style="fill:none;"/><clipPath id="_clip1"><rect x="0" y="0" width="218.905" height="219"/></clipPath><g clip-path="url(#_clip1)"><rect x="1.265" y="1.623" width="299.877" height="299.877" style="fill:none;"/><g><clipPath id="_clip2"><rect x="-1.735" y="-3.377" width="220.64" height="222.377"/></clipPath><g clip-path="url(#_clip2)"><rect x="-0.263" y="-0.736" width="220.64" height="222.377" style="fill:#29009d;"/><g><clipPath id="_clip3"><rect x="-0.263" y="-0.736" width="220.64" height="222.377"/></clipPath><g clip-path="url(#_clip3)"><ellipse cx="110.431" cy="110.225" rx="202.517" ry="204.112" style="fill:#29009d;"/><ellipse cx="110.431" cy="110.225" rx="197.28" ry="198.833" style="fill:#29009d;"/><ellipse cx="110.431" cy="110.225" rx="191.027" ry="192.531" style="fill:#29009d;"/><ellipse cx="110.431" cy="110.225" rx="182.274" ry="183.709" style="fill:#29009d;"/><ellipse cx="110.431" cy="110.225" rx="172.02" ry="173.375" style="fill:#29009d;"/><ellipse cx="110.431" cy="110.225" rx="161.266" ry="162.536" style="fill:#29009d;"/><ellipse cx="110.431" cy="110.225" rx="149.304" ry="150.48" style="fill:#29009d;"/><ellipse cx="110.431" cy="110.225" rx="134.53" ry="135.589" style="fill:#29009d;"/><ellipse cx="110.431" cy="110.225" rx="121.252" ry="122.206" style="fill:#29009d;"/><ellipse cx="110.431" cy="110.225" rx="107.125" ry="107.968" style="fill:#29009d;"/><ellipse cx="110.431" cy="110.225" rx="91.579" ry="92.3" style="fill:#29009d;"/><ellipse cx="110.431" cy="110.225" rx="77.495" ry="78.105" style="fill:#29009d;"/><ellipse cx="110.431" cy="110.225" rx="64.523" ry="65.031" style="fill:#29009d;"/><ellipse cx="110.431" cy="110.225" rx="50.579" ry="50.977" style="fill:#29009d;"/><ellipse cx="110.431" cy="110.225" rx="39.812" ry="40.125" style="fill:#29009d;"/><ellipse cx="110.431" cy="110.225" rx="19.206" ry="19.357" style="fill:#29009d;"/><ellipse cx="110.492" cy="110.164" rx="6.655" ry="6.708" style="fill:#29009d;"/></g></g><path d="M121.997,71.675c2.652,0.818 5.211,1.913 7.636,3.269l0,-31.356l10.312,0c5.688,0 10.298,4.647 10.298,10.379l0,96.438l-10.299,0c-4.008,0 -7.483,-2.305 -9.189,-5.673c-5.979,3.602 -12.971,5.673 -20.439,5.673c-22.036,0 -39.927,-18.032 -39.927,-40.241c0,-18.241 12.068,-33.663 28.592,-38.594c-6.945,12.93 -14.47,29.114 -14.47,38.535c0,14.435 11.628,26.155 25.95,26.155c14.322,0 25.95,-11.719 25.95,-26.155c0,-9.394 -7.483,-25.514 -14.414,-38.43l0,-0Z" style="fill:#00ffcf;"/><path d="M105.783,72.685c0.948,-1.729 2.759,-2.805 4.719,-2.805c1.96,0 3.771,1.077 4.719,2.805c5.718,10.433 14.598,28.131 14.598,37.426c0,10.745 -8.655,19.468 -19.316,19.468c-10.661,0 -19.316,-8.724 -19.316,-19.468c0,-9.295 8.88,-26.992 14.598,-37.426m4.718,24.133c-7.309,0 -13.242,5.98 -13.242,13.346c0,7.366 5.934,13.346 13.242,13.346c7.309,0 13.242,-5.98 13.242,-13.346c0,-7.366 -5.934,-13.346 -13.242,-13.346" style="fill:#00ffcf;"/><ellipse cx="110.502" cy="110.164" rx="6.655" ry="6.708" style="fill:#00ffcf;"/></g></g></g></svg>
