<?xml version="1.0" encoding="UTF-8" standalone="no"?>
<!DOCTYPE svg PUBLIC "-//W3C//DTD SVG 1.1//EN" "http://www.w3.org/Graphics/SVG/1.1/DTD/svg11.dtd">
<svg width="509px" height="354px" version="1.1" xmlns="http://www.w3.org/2000/svg" xmlns:xlink="http://www.w3.org/1999/xlink" xml:space="preserve" xmlns:serif="http://www.serif.com/" style="fill-rule:evenodd;clip-rule:evenodd;stroke-linejoin:round;stroke-miterlimit:2;">
    <g transform="matrix(1,0,0,1,-123287,-184657)">
        <g transform="matrix(0.961072,0,0,0.961072,41350.9,30620.4)">
            <path d="M85260.1,160293C85259.1,160292 85257.3,160291 85255.3,160291L85255.3,160279C85255.3,160278 85255.7,160277 85256.3,160277C85256.9,160276 85257.8,160276 85258.7,160276L85264.1,160276L85264.1,160276C85264.1,160279 85266.7,160282 85269.8,160282C85273,160282 85275.6,160279 85275.6,160276L85275.6,160276L85287.9,160276L85287.9,160276C85287.9,160279 85290.4,160282 85293.6,160282C85296.8,160282 85299.4,160279 85299.4,160276L85299.4,160276L85311.7,160276L85311.7,160276C85311.7,160279 85314.2,160282 85317.4,160282C85320.6,160282 85323.2,160279 85323.2,160276L85335.5,160276L85335.5,160276C85335.5,160279 85338,160282 85341.2,160282C85344.4,160282 85347,160279 85347,160276L85347,160276L85359.3,160276L85359.3,160276C85359.3,160279 85361.8,160282 85365,160282C85368.2,160282 85370.8,160279 85370.8,160276L85370.8,160276L85383.1,160276L85383,160276C85383,160279 85385.6,160282 85388.8,160282C85392,160282 85394.6,160279 85394.6,160276L85394.6,160276L85406.8,160276L85406.8,160276C85406.8,160279 85409.4,160282 85412.6,160282C85415.8,160282 85418.4,160279 85418.4,160276L85418.4,160276L85430.6,160276L85430.6,160276C85430.6,160279 85433.2,160282 85436.4,160282C85439.6,160282 85442.2,160279 85442.2,160276L85442.2,160276L85454.4,160276L85454.4,160276C85454.4,160279 85457,160282 85460.2,160282C85463.4,160282 85466,160279 85466,160276L85466,160276L85478.2,160276L85478.2,160276C85478.2,160279 85480.8,160282 85484,160282C85487.2,160282 85489.8,160279 85489.8,160276L85489.8,160276L85502,160276L85502,160276C85502,160279 85504.6,160282 85507.8,160282C85511,160282 85513.6,160279 85513.6,160276L85513.6,160276L85525.8,160276L85525.8,160276C85525.8,160279 85528.4,160282 85531.6,160282C85534.8,160282 85537.4,160279 85537.4,160276L85537.3,160276L85549.6,160276L85549.6,160276C85549.6,160279 85552.2,160282 85555.4,160282C85558.6,160282 85561.1,160279 85561.1,160276L85561.1,160276L85573.4,160276L85573.4,160276C85573.4,160279 85576,160282 85579.2,160282C85582.4,160282 85584.9,160279 85584.9,160276L85584.9,160276L85597.2,160276L85597.2,160276C85597.2,160279 85599.8,160282 85603,160282C85606.2,160282 85608.7,160279 85608.7,160276L85608.7,160276L85621,160276L85621,160276C85621,160279 85623.6,160282 85626.8,160282C85629.9,160282 85632.5,160279 85632.5,160276L85632.5,160276L85644.8,160276L85644.8,160276C85644.8,160279 85647.4,160282 85650.6,160282C85653.7,160282 85656.3,160279 85656.3,160276L85656.3,160276L85668.6,160276L85668.6,160276C85668.6,160279 85671.2,160282 85674.4,160282C85677.5,160282 85680.1,160279 85680.1,160276L85680.1,160276L85692.4,160276L85692.4,160276C85692.4,160279 85695,160282 85698.2,160282C85701.3,160282 85703.9,160279 85703.9,160276L85703.9,160276L85716.2,160276L85716.2,160276C85716.2,160279 85718.8,160282 85721.9,160282C85725.1,160282 85727.7,160279 85727.7,160276L85727.7,160276L85740,160276L85740,160276C85740,160279 85742.6,160282 85745.7,160282C85748.9,160282 85751.5,160279 85751.5,160276L85751.5,160276L85763.8,160276L85763.8,160276C85763.8,160279 85766.4,160282 85769.5,160282C85772.7,160282 85775.3,160279 85775.3,160276L85775.3,160276L85780.7,160276C85781.6,160276 85782.4,160276 85783.1,160277C85783.7,160277 85784,160278 85784,160279L85784,160291C85780.9,160291 85778.3,160293 85778.3,160297C85778.3,160300 85780.9,160302 85784,160302L85784,160315C85780.9,160315 85778.3,160317 85778.3,160321C85778.3,160324 85780.9,160326 85784,160326L85784,160339C85780.9,160339 85778.3,160341 85778.3,160345C85778.3,160348 85780.9,160350 85784,160350L85784,160363C85780.9,160363 85778.3,160365 85778.3,160368C85778.3,160371 85780.9,160374 85784,160374L85784,160387C85780.9,160387 85778.3,160389 85778.3,160392C85778.3,160396 85780.9,160398 85784,160398L85784,160410C85780.9,160410 85778.3,160413 85778.3,160416C85778.3,160419 85780.9,160422 85784,160422L85784,160434C85780.9,160434 85778.3,160437 85778.3,160440C85778.3,160443 85780.9,160446 85784,160446L85784,160458C85780.9,160458 85778.3,160461 85778.3,160464C85778.3,160467 85780.9,160470 85784,160470L85784,160482C85780.9,160482 85778.3,160485 85778.3,160488C85778.3,160491 85780.9,160494 85784,160494L85784,160506C85780.9,160506 85778.3,160509 85778.3,160512C85778.3,160515 85780.9,160518 85784,160518L85784,160530C85780.9,160530 85778.3,160532 85778.3,160536C85778.3,160537 85778.5,160537 85778.9,160538C85779.9,160540 85781.8,160541 85784,160541L85784,160554C85780.9,160554 85778.3,160556 85778.3,160559C85778.3,160563 85780.9,160565 85784,160565L85784,160577C85780.9,160577 85778.3,160580 85778.3,160583C85778.3,160586 85780.9,160589 85784,160589L85784,160624C85780.9,160624 85778.3,160626 85778.3,160629C85778.3,160633 85780.9,160635 85784,160635L85784,160640C85784,160642 85782.5,160644 85780.7,160644L85775.2,160644C85775.2,160640 85772.6,160638 85769.4,160638C85766.3,160638 85763.7,160640 85763.7,160644L85751.4,160644C85751.4,160640 85748.8,160638 85745.6,160638C85742.5,160638 85739.9,160640 85739.9,160644L85727.6,160644C85727.6,160640 85725,160638 85721.8,160638C85718.7,160638 85716.1,160640 85716.1,160644L85703.8,160644C85703.8,160640 85701.2,160638 85698,160638C85694.9,160638 85692.3,160640 85692.3,160644L85680,160644C85680,160640 85677.4,160638 85674.3,160638C85671.1,160638 85668.5,160640 85668.5,160644L85656.2,160644C85656.2,160640 85653.6,160638 85650.5,160638C85647.3,160638 85644.7,160640 85644.7,160644L85632.4,160644C85632.4,160640 85629.8,160638 85626.7,160638C85623.5,160638 85620.9,160640 85620.9,160644L85608.6,160644C85608.6,160640 85606,160638 85602.9,160638C85599.7,160638 85597.1,160640 85597.1,160644L85584.8,160644C85584.8,160640 85582.2,160638 85579.1,160638C85575.9,160638 85573.3,160640 85573.3,160644L85561,160644C85561,160640 85558.5,160638 85555.3,160638C85552.1,160638 85549.5,160640 85549.5,160644L85537.2,160644C85537.2,160640 85534.7,160638 85531.5,160638C85528.3,160638 85525.7,160640 85525.7,160644L85513.4,160644C85513.4,160640 85510.9,160638 85507.7,160638C85504.5,160638 85501.9,160640 85501.9,160644L85489.7,160644C85489.7,160640 85487.1,160638 85483.9,160638C85480.7,160638 85478.1,160640 85478.1,160644L85465.9,160644C85465.9,160640 85463.3,160638 85460.1,160638C85456.9,160638 85454.3,160640 85454.3,160644L85442.1,160644C85442.1,160640 85439.5,160638 85436.3,160638C85433.1,160638 85430.5,160640 85430.5,160644L85418.3,160644C85418.3,160640 85415.7,160638 85412.5,160638C85409.3,160638 85406.7,160640 85406.7,160644L85394.5,160644C85394.5,160640 85391.9,160638 85388.7,160638C85385.5,160638 85382.9,160640 85382.9,160644L85370.7,160644C85370.7,160640 85368.1,160638 85364.9,160638C85361.7,160638 85359.1,160640 85359.1,160644L85346.9,160644C85346.9,160640 85344.3,160638 85341.1,160638C85337.9,160638 85335.4,160640 85335.4,160644L85323.1,160644C85323.1,160640 85320.5,160638 85317.3,160638C85314.1,160638 85311.6,160640 85311.6,160644L85299.3,160644C85299.3,160640 85296.7,160638 85293.5,160638C85290.3,160638 85287.8,160640 85287.8,160644L85275.5,160644C85275.5,160640 85272.9,160638 85269.7,160638C85266.5,160638 85264,160640 85264,160644L85258.7,160644C85257.8,160644 85256.9,160643 85256.3,160643C85255.7,160642 85255.3,160641 85255.3,160640L85255.3,160635C85258.5,160635 85261.1,160633 85261.1,160629C85261.1,160626 85258.5,160624 85255.3,160624L85255.3,160589C85258.5,160589 85261.1,160586 85261.1,160583C85261.1,160580 85258.5,160577 85255.3,160577L85255.3,160565C85258.5,160565 85261.1,160563 85261.1,160559C85261.1,160556 85258.5,160554 85255.3,160554L85255.3,160541C85255.4,160541 85255.4,160541 85255.5,160541C85258.6,160541 85261.2,160539 85261.2,160536C85261.2,160535 85261,160534 85260.7,160534C85259.9,160531 85257.8,160530 85255.3,160530L85255.3,160518C85256.2,160518 85257,160517 85257.7,160517C85259.7,160516 85261.2,160514 85261.2,160512C85261.2,160510 85260.3,160508 85259,160507C85258,160507 85256.7,160506 85255.3,160506L85255.3,160494C85256.1,160494 85256.9,160494 85257.6,160493C85259.7,160492 85261.2,160490 85261.2,160488L85261.2,160488L85261.2,160488C85261.2,160485 85258.6,160482 85255.5,160482C85255.4,160482 85255.4,160482 85255.3,160482L85255.3,160470C85255.4,160470 85255.4,160470 85255.5,160470C85258.6,160470 85261.2,160467 85261.2,160464C85261.2,160461 85258.6,160458 85255.5,160458C85255.4,160458 85255.4,160458 85255.3,160458L85255.3,160446C85255.4,160446 85255.4,160446 85255.5,160446C85258.6,160446 85261.2,160443 85261.2,160440L85261.2,160440L85261.2,160440C85261.2,160437 85258.6,160434 85255.5,160434C85255.4,160434 85255.4,160434 85255.3,160434L85255.3,160422C85255.4,160422 85255.4,160422 85255.5,160422C85258.6,160422 85261.2,160419 85261.2,160416C85261.2,160413 85258.6,160410 85255.5,160410C85255.4,160410 85255.4,160410 85255.3,160410L85255.3,160398C85255.4,160398 85255.4,160398 85255.5,160398C85258.6,160398 85261.2,160396 85261.2,160392L85261.2,160392L85261.2,160392C85261.2,160389 85258.6,160387 85255.5,160387C85255.4,160387 85255.4,160387 85255.3,160387L85255.3,160374C85255.4,160374 85255.4,160374 85255.5,160374C85258.6,160374 85261.2,160371 85261.2,160368C85261.2,160365 85258.6,160363 85255.5,160363C85255.4,160363 85255.4,160363 85255.3,160363L85255.3,160350C85255.4,160350 85255.4,160350 85255.5,160350C85258.6,160350 85261.2,160348 85261.2,160345L85261.2,160344L85261.2,160344C85261.2,160341 85258.6,160339 85255.5,160339C85255.4,160339 85255.4,160339 85255.3,160339L85255.3,160326C85255.4,160326 85255.4,160326 85255.5,160326C85258.6,160326 85261.2,160324 85261.2,160321C85261.2,160317 85258.6,160315 85255.5,160315C85255.4,160315 85255.4,160315 85255.3,160315L85255.3,160302C85255.4,160302 85255.4,160302 85255.4,160302C85255.4,160302 85255.4,160302 85255.5,160302C85258.6,160302 85261.2,160300 85261.2,160297C85261.2,160295 85260.8,160294 85260.1,160293Z" style="fill:white;"/>
        </g>
    </g>
</svg>
