<?xml version="1.0" encoding="UTF-8" standalone="no"?>
<!DOCTYPE svg PUBLIC "-//W3C//DTD SVG 1.1//EN" "http://www.w3.org/Graphics/SVG/1.1/DTD/svg11.dtd">
<svg width="437px" height="59px" version="1.1" xmlns="http://www.w3.org/2000/svg" xmlns:xlink="http://www.w3.org/1999/xlink" xml:space="preserve" xmlns:serif="http://www.serif.com/" style="fill-rule:evenodd;clip-rule:evenodd;stroke-linejoin:round;stroke-miterlimit:2;">
    <g transform="matrix(1,0,0,1,-123323,-184688)">
        <g transform="matrix(3.01681e-17,0.492683,-3.7567,2.30032e-16,729348,142257)">
            <path d="M86241.1,161288L86241.1,161316C86241.1,161317 86234.6,161318 86226.6,161318L86136.1,161318C86128.1,161318 86121.6,161317 86121.6,161316L86121.6,161288C86127.6,161288 86132.3,161288 86132.3,161287C86132.3,161286 86127.6,161285 86121.6,161285L86121.6,161204C86121.6,161203 86128.1,161202 86136.1,161202L86226.6,161202C86234.6,161202 86241.1,161203 86241.1,161204L86241.1,161285C86240.8,161285 86240.6,161285 86240.4,161285C86234.2,161285 86229.1,161286 86229.1,161287C86229.1,161288 86234.2,161288 86240.4,161288C86240.6,161288 86240.8,161288 86241.1,161288Z" style="fill:rgb(8,31,212);"/>
        </g>
    </g>
</svg>
