<?xml version="1.0" encoding="UTF-8" standalone="no"?><!DOCTYPE svg PUBLIC "-//W3C//DTD SVG 1.1//EN" "http://www.w3.org/Graphics/SVG/1.1/DTD/svg11.dtd"><svg width="100%" height="100%" viewBox="0 0 12794 3355" version="1.1" xmlns="http://www.w3.org/2000/svg" xmlns:xlink="http://www.w3.org/1999/xlink" xml:space="preserve" xmlns:serif="http://www.serif.com/" style="fill-rule:evenodd;clip-rule:evenodd;stroke-linejoin:round;stroke-miterlimit:2;"><rect id="Wordmark-2-nobg" serif:id="Wordmark 2 nobg" x="0.604" y="1.399" width="12792.5" height="3350.99" style="fill:none;"/><g><g><path d="M1706.95,2012.97c99.97,0 172.476,-31.034 217.517,-93.104c45.042,-62.069 67.562,-155.173 67.562,-279.312c0,-61.52 -5.493,-114.251 -16.478,-158.194c-10.986,-43.943 -28.838,-79.921 -53.556,-107.935c-24.718,-28.013 -56.302,-48.337 -94.752,-60.971c-38.45,-12.633 -85.139,-18.95 -140.068,-18.95l-169.729,0l0,718.466l189.504,0Zm-411.965,186.208l0,-1094.18l423.5,0c73.604,0 141.716,12.359 204.334,37.077c62.619,24.718 116.174,60.147 160.666,106.287c44.493,46.14 79.372,102.167 104.639,168.082c25.268,65.914 37.901,140.617 37.901,224.108c0,83.492 -11.26,159.568 -33.781,228.229c-22.521,68.66 -54.654,127.434 -96.4,176.321c-41.745,48.886 -91.73,86.787 -149.955,113.702c-58.224,26.915 -122.491,40.372 -192.799,40.372l-458.105,0Z" style="fill:#29009d;fill-rule:nonzero;"/><path d="M2825.84,1714.7c-1.099,-29.662 -6.317,-55.753 -15.655,-78.273c-9.338,-22.521 -21.697,-41.197 -37.077,-56.028c-15.38,-14.83 -32.957,-25.816 -52.731,-32.957c-19.775,-7.14 -40.098,-10.711 -60.971,-10.711c-42.844,0 -79.921,15.655 -111.231,46.964c-31.309,31.309 -49.161,74.978 -53.555,131.005l331.22,-0Zm-337.811,135.124c3.295,61.52 21.147,110.407 53.555,146.66c32.408,36.253 74.978,54.379 127.709,54.379c35.154,0 66.189,-7.965 93.104,-23.894c26.915,-15.929 44.218,-38.175 51.908,-66.738l220.813,-0c-25.268,83.491 -69.21,147.758 -131.829,192.799c-62.619,45.042 -137.322,67.562 -224.109,67.562c-270.249,0 -405.373,-147.208 -405.373,-441.626c0,-62.618 8.789,-119.195 26.366,-169.729c17.577,-50.534 43.119,-93.928 76.625,-130.181c33.507,-36.253 74.428,-63.992 122.766,-83.217c48.337,-19.225 103.815,-28.837 166.433,-28.837c125.238,-0 219.989,40.098 284.256,120.293c64.266,80.196 96.4,201.039 96.4,362.529l-558.624,0Z" style="fill:#29009d;fill-rule:nonzero;"/><path d="M3600.34,1633.96c-5.493,-37.352 -19.5,-64.541 -42.02,-81.569c-22.521,-17.028 -56.852,-25.542 -102.992,-25.542c-43.942,0 -77.174,5.218 -99.695,15.655c-22.521,10.436 -33.781,28.288 -33.781,53.555c-0,21.972 11.26,39.549 33.781,52.732c22.521,13.182 55.203,25.816 98.048,37.9c70.308,19.775 129.631,36.528 177.968,50.26c48.337,13.732 87.062,29.936 116.174,48.612c29.112,18.676 49.985,42.02 62.619,70.034c12.633,28.013 18.95,65.639 18.95,112.878c0,72.506 -30.21,132.653 -90.632,180.441c-60.421,47.787 -149.955,71.681 -268.601,71.681c-58.224,0 -110.956,-6.591 -158.194,-19.774c-47.239,-13.183 -87.611,-32.133 -121.118,-56.851c-33.506,-24.718 -59.323,-54.379 -77.449,-88.984c-18.127,-34.605 -27.739,-73.33 -28.838,-116.174l220.813,-0c0,38.45 15.106,68.111 45.316,88.984c30.211,20.873 69.485,31.309 117.822,31.309c40.647,0 75.527,-6.317 104.639,-18.95c29.112,-12.634 43.669,-32.133 43.669,-58.499c-0,-29.661 -10.712,-51.084 -32.134,-64.267c-21.422,-13.182 -54.104,-24.717 -98.047,-34.605c-79.097,-17.577 -142.815,-35.978 -191.152,-55.203c-48.337,-19.225 -85.963,-40.372 -112.878,-63.442c-26.915,-23.07 -45.042,-48.338 -54.379,-75.802c-9.338,-27.464 -14.007,-58.224 -14.007,-92.28c-0,-30.76 6.317,-59.872 18.95,-87.336c12.634,-27.465 32.683,-51.633 60.147,-72.506c27.464,-20.873 63.168,-37.626 107.111,-50.26c43.943,-12.633 97.773,-18.95 161.49,-18.95c116.449,-0 201.588,23.619 255.418,70.858c53.83,47.238 83.491,112.603 88.984,196.095l-205.982,-0Z" style="fill:#29009d;fill-rule:nonzero;"/><path d="M3887.06,2199.17l0,-810.746l214.222,-0l-0,810.746l-214.222,0Zm0,-907.97l0,-199.391l214.222,0l-0,199.391l-214.222,0Z" style="fill:#29009d;fill-rule:nonzero;"/><path d="M4580.81,2052.82c52.731,0 96.399,-20.501 131.004,-61.504c34.605,-41.003 51.908,-96.891 51.908,-167.663c-0,-177.492 -60.971,-266.238 -182.912,-266.238c-121.942,0 -182.913,84.253 -182.913,252.758c0,74.142 17.303,133.119 51.908,176.93c34.605,43.811 78.273,65.717 131.005,65.717Zm176.32,53.922c-15.38,37.071 -43.118,65.997 -83.216,86.78c-40.098,20.782 -86.513,31.173 -139.244,31.173c-67.013,0 -123.315,-12.076 -168.906,-36.228c-45.591,-24.153 -82.393,-55.888 -110.406,-95.206c-28.014,-39.318 -48.338,-84.814 -60.971,-136.489c-12.634,-51.675 -18.95,-104.473 -18.95,-158.394c-0,-64.032 9.337,-122.728 28.013,-176.088c18.676,-53.36 43.943,-98.856 75.802,-136.489c31.858,-37.633 69.21,-66.84 112.054,-87.623c42.844,-20.782 88.984,-31.173 138.42,-31.173c101.069,-0 176.87,41.564 227.404,124.693l0,-102.788l214.222,0l0,837.47c0,62.909 -10.436,118.235 -31.309,165.978c-20.873,47.743 -49.436,87.622 -85.689,119.638c-36.253,32.016 -79.097,56.449 -128.533,73.3c-49.436,16.85 -102.167,25.276 -158.194,25.276c-56.027,-0 -108.21,-8.145 -156.547,-24.434c-48.337,-16.288 -89.808,-39.317 -124.413,-69.087c-34.605,-29.769 -61.795,-65.997 -81.569,-108.685c-19.774,-42.688 -29.661,-90.993 -29.661,-144.915l199.39,0c0,50.552 16.204,89.589 48.612,117.111c32.408,27.523 75.527,41.284 129.357,41.284c57.126,0 105.463,-16.008 145.012,-48.024c39.548,-32.016 59.322,-75.546 59.322,-130.591l0,-136.489Z" style="fill:#29009d;fill-rule:nonzero;"/><path d="M5576.12,2199.17l0,-491.062c0,-62.618 -10.436,-104.913 -31.309,-126.885c-20.873,-21.971 -56.577,-32.957 -107.111,-32.957c-110.956,0 -166.434,62.07 -166.434,186.208l0,464.696l-214.221,0l-0,-810.746l204.334,-0l0,118.646c25.267,-46.14 58.774,-81.02 100.519,-104.639c41.746,-23.62 95.576,-35.429 161.491,-35.429c38.45,-0 74.153,5.767 107.11,17.302c32.958,11.535 61.246,28.838 84.865,51.908c23.619,23.07 42.295,51.358 56.027,84.865c13.732,33.506 20.599,72.231 20.599,116.174l-0,561.919l-215.87,0Z" style="fill:#29009d;fill-rule:nonzero;"/><rect x="6279.75" y="1105" width="229.052" height="1094.18" style="fill:#29009d;fill-rule:nonzero;"/><path d="M7106.98,2199.17l0,-491.062c0,-62.618 -10.436,-104.913 -31.309,-126.885c-20.873,-21.971 -56.576,-32.957 -107.111,-32.957c-110.955,0 -166.433,62.07 -166.433,186.208l-0,464.696l-214.222,0l0,-810.746l204.335,-0l-0,118.646c25.267,-46.14 58.773,-81.02 100.519,-104.639c41.746,-23.62 95.576,-35.429 161.49,-35.429c38.45,-0 74.154,5.767 107.111,17.302c32.957,11.535 61.245,28.838 84.864,51.908c23.62,23.07 42.296,51.358 56.028,84.865c13.732,33.506 20.598,72.231 20.598,116.174l-0,561.919l-215.87,0Z" style="fill:#29009d;fill-rule:nonzero;"/><path d="M7927.61,2199.17l-0,-491.062c-0,-62.618 -10.437,-104.913 -31.309,-126.885c-20.873,-21.971 -56.577,-32.957 -107.111,-32.957c-110.956,0 -166.434,62.07 -166.434,186.208l0,464.696l-214.221,0l-0,-810.746l204.334,-0l-0,118.646c25.267,-46.14 58.774,-81.02 100.519,-104.639c41.746,-23.62 95.576,-35.429 161.49,-35.429c38.45,-0 74.154,5.767 107.111,17.302c32.957,11.535 61.246,28.838 84.865,51.908c23.619,23.07 42.295,51.358 56.027,84.865c13.732,33.506 20.598,72.231 20.598,116.174l0,561.919l-215.869,0Z" style="fill:#29009d;fill-rule:nonzero;"/><path d="M8716.94,1633.96c-5.493,-37.352 -19.5,-64.541 -42.02,-81.569c-22.521,-17.028 -56.851,-25.542 -102.992,-25.542c-43.942,0 -77.174,5.218 -99.695,15.655c-22.521,10.436 -33.781,28.288 -33.781,53.555c-0,21.972 11.26,39.549 33.781,52.732c22.521,13.182 55.203,25.816 98.048,37.9c70.308,19.775 129.631,36.528 177.968,50.26c48.338,13.732 87.062,29.936 116.174,48.612c29.113,18.676 49.985,42.02 62.619,70.034c12.634,28.013 18.95,65.639 18.95,112.878c0,72.506 -30.21,132.653 -90.632,180.441c-60.421,47.787 -149.955,71.681 -268.601,71.681c-58.224,0 -110.956,-6.591 -158.194,-19.774c-47.239,-13.183 -87.611,-32.133 -121.118,-56.851c-33.506,-24.718 -59.323,-54.379 -77.449,-88.984c-18.127,-34.605 -27.739,-73.33 -28.838,-116.174l220.813,-0c0,38.45 15.106,68.111 45.316,88.984c30.211,20.873 69.485,31.309 117.822,31.309c40.648,0 75.527,-6.317 104.639,-18.95c29.113,-12.634 43.669,-32.133 43.669,-58.499c-0,-29.661 -10.711,-51.084 -32.134,-64.267c-21.422,-13.182 -54.104,-24.717 -98.047,-34.605c-79.097,-17.577 -142.815,-35.978 -191.152,-55.203c-48.337,-19.225 -85.963,-40.372 -112.878,-63.442c-26.915,-23.07 -45.042,-48.338 -54.379,-75.802c-9.338,-27.464 -14.007,-58.224 -14.007,-92.28c-0,-30.76 6.317,-59.872 18.95,-87.336c12.634,-27.465 32.683,-51.633 60.147,-72.506c27.464,-20.873 63.168,-37.626 107.111,-50.26c43.943,-12.633 97.773,-18.95 161.49,-18.95c116.449,-0 201.588,23.619 255.418,70.858c53.83,47.238 83.491,112.603 88.984,196.095l-205.982,-0Z" style="fill:#29009d;fill-rule:nonzero;"/><path d="M9705.65,1849.83c3.296,61.52 21.148,110.407 53.555,146.66c32.408,36.253 74.978,54.379 127.709,54.379c35.155,0 66.189,-7.965 93.104,-23.894c26.915,-15.929 44.218,-38.175 51.908,-66.738l220.813,-0c-25.267,83.491 -69.21,147.758 -131.829,192.799c-62.618,45.042 -137.321,67.562 -224.108,67.562c-61.52,0 -121.118,-9.887 -178.793,-29.661c-57.675,-19.774 -106.836,-55.478 -147.483,-107.111c-39.549,46.14 -84.865,80.471 -135.949,102.991c-51.083,22.521 -113.427,33.781 -187.032,33.781c-93.378,0 -161.764,-20.598 -205.158,-61.794c-43.394,-41.197 -65.09,-94.752 -65.09,-160.666c-0,-58.225 9.338,-104.639 28.013,-139.244c18.676,-34.606 44.492,-61.795 77.45,-81.569c32.957,-19.775 72.231,-34.331 117.821,-43.669c45.591,-9.338 95.302,-17.852 149.132,-25.542c53.83,-7.69 90.083,-17.851 108.758,-30.485c18.676,-12.633 28.014,-33.232 28.014,-61.795c-0,-26.365 -12.359,-46.964 -37.077,-61.794c-24.718,-14.831 -57.95,-22.246 -99.695,-22.246c-49.436,-0 -84.865,10.985 -106.287,32.957c-21.422,21.971 -34.88,51.083 -40.373,87.336l-199.391,0c1.099,-41.745 7.965,-80.195 20.599,-115.35c12.633,-35.154 32.957,-65.365 60.97,-90.632c28.014,-25.267 64.541,-44.767 109.583,-58.499c45.041,-13.732 99.97,-20.598 164.786,-20.598c63.717,-0 117.272,6.866 160.666,20.598c43.394,13.732 78.823,34.33 106.287,61.795c68.111,-54.929 153.8,-82.393 257.066,-82.393c125.237,-0 219.989,40.098 284.255,120.293c64.267,80.196 96.4,201.039 96.4,362.529l-558.624,0Zm-214.222,-47.788c-10.985,10.986 -26.915,19.775 -47.787,26.366c-20.873,6.592 -51.084,13.732 -90.633,21.422c-61.52,12.085 -103.815,27.465 -126.885,46.14c-23.07,18.676 -34.605,45.591 -34.605,80.745c0,60.422 34.605,90.633 103.815,90.633c27.465,-0 53.006,-4.669 76.626,-14.007c23.619,-9.338 43.943,-21.972 60.97,-37.901c17.028,-15.929 30.76,-34.605 41.197,-56.027c10.436,-21.422 15.655,-44.218 15.655,-68.386l1.647,-88.985Zm552.033,-87.336c-1.099,-29.662 -6.317,-55.753 -15.655,-78.273c-9.338,-22.521 -21.696,-41.197 -37.077,-56.028c-15.38,-14.83 -32.957,-25.816 -52.731,-32.957c-19.774,-7.14 -40.098,-10.711 -60.971,-10.711c-42.844,0 -79.921,15.655 -111.23,46.964c-31.309,31.309 -49.161,74.978 -53.556,131.005l331.22,-0Z" style="fill:#ff006c;fill-rule:nonzero;"/><path d="M10331.8,2199.17l0,-810.746l214.222,-0l-0,810.746l-214.222,0Zm0,-907.97l0,-199.391l214.222,0l-0,199.391l-214.222,0Z" style="fill:#29009d;fill-rule:nonzero;"/><path d="M11096.4,1665.27l199.391,0l0,230.7c0,42.845 -6.316,83.766 -18.95,122.766c-12.634,38.999 -32.408,73.604 -59.323,103.815c-26.915,30.211 -60.971,54.105 -102.167,71.682c-41.197,17.577 -90.358,26.365 -147.484,26.365c-59.322,0 -109.857,-8.788 -151.602,-26.365c-41.746,-17.577 -76.077,-41.197 -102.992,-70.858c-26.915,-29.662 -46.414,-64.267 -58.499,-103.815c-12.084,-39.549 -18.126,-81.295 -18.126,-125.238l-0,-725.057l210.926,-0l-0,219.165l448.217,-0l0,151.603l-448.217,-0l-0,332.867c-0,51.633 9.612,91.456 28.837,119.47c19.225,28.014 50.809,42.02 94.752,42.02c42.845,0 74.428,-13.732 94.752,-41.196c20.324,-27.464 30.485,-66.464 30.485,-116.998l0,-210.926Z" style="fill:#29009d;fill-rule:nonzero;"/></g><g><path d="M1291.82,2612.33l0,-274.869l183.117,0l0,38.327l-139.757,0l-0,82.074l116.916,-0l-0,36.004l-116.916,-0l-0,118.464l-43.36,0Z" style="fill:#ff006c;fill-rule:nonzero;"/><path d="M1508.62,2612.33l0,-202.474l42.586,0l-0,202.474l-42.586,0Zm0,-235.768l0,-46.844l42.586,0l-0,46.844l-42.586,0Z" style="fill:#ff006c;fill-rule:nonzero;"/><path d="M1783.1,2612.33l-42.585,0l-0,-113.432c-0,-19.098 -3.097,-32.971 -9.292,-41.617c-6.194,-8.646 -15.098,-12.969 -26.712,-12.969c-6.194,-0 -12.453,1.161 -18.776,3.484c-6.324,2.323 -12.195,5.614 -17.615,9.872c-5.42,4.259 -10.259,9.291 -14.518,15.098c-4.259,5.808 -7.549,12.195 -9.872,19.164l-0,120.4l-42.585,0l-0,-202.474l38.714,0l-0,40.65c7.742,-13.679 18.969,-24.454 33.681,-32.326c14.711,-7.872 30.971,-11.808 48.779,-11.808c12.131,0 22.132,2.194 30.004,6.581c7.871,4.388 14.066,10.389 18.582,18.002c4.517,7.614 7.679,16.389 9.485,26.326c1.807,9.936 2.71,20.454 2.71,31.552l0,123.497Z" style="fill:#ff006c;fill-rule:nonzero;"/><path d="M1915.12,2616.21c-13.937,-0 -26.777,-2.775 -38.521,-8.324c-11.743,-5.549 -21.873,-13.098 -30.39,-22.647c-8.517,-9.55 -15.163,-20.648 -19.938,-33.294c-4.775,-12.647 -7.162,-26.197 -7.162,-40.65c0,-14.453 2.258,-28.068 6.775,-40.843c4.517,-12.776 10.775,-23.874 18.776,-33.294c8.001,-9.421 17.615,-16.905 28.842,-22.454c11.227,-5.549 23.422,-8.324 36.585,-8.324c15.744,0 29.81,3.871 42.198,11.614c12.389,7.743 22.067,17.809 29.036,30.197l-0,-118.465l42.585,0l-0,232.284c-0,8.775 4.129,13.421 12.388,13.937l0,36.391c-4.387,0.775 -8.259,1.291 -11.614,1.549c-3.355,0.258 -6.452,0.387 -9.291,0.387c-16.002,-1.549 -25.035,-8.904 -27.1,-22.067l-0.774,-16.647c-7.743,13.163 -18.067,23.228 -30.971,30.197c-12.905,6.968 -26.713,10.453 -41.424,10.453Zm10.84,-36.391c5.42,-0 11.098,-1.033 17.034,-3.098c5.936,-2.064 11.485,-4.903 16.647,-8.517c5.162,-3.613 9.678,-7.871 13.55,-12.775c3.871,-4.904 6.581,-10.195 8.13,-15.873l-0,-53.038c-2.323,-6.194 -5.549,-11.937 -9.679,-17.228c-4.129,-5.291 -8.84,-9.936 -14.13,-13.937c-5.291,-4 -10.905,-7.097 -16.841,-9.291c-5.936,-2.194 -11.872,-3.291 -17.808,-3.291c-9.034,0 -17.228,1.936 -24.584,5.807c-7.355,3.872 -13.679,9.034 -18.97,15.486c-5.291,6.452 -9.356,13.872 -12.195,22.26c-2.839,8.388 -4.258,16.97 -4.258,25.745c-0,9.291 1.613,18.067 4.839,26.326c3.226,8.259 7.614,15.421 13.163,21.486c5.549,6.065 12.195,10.904 19.938,14.518c7.742,3.613 16.13,5.42 25.164,5.42Z" style="fill:#ff006c;fill-rule:nonzero;"/><path d="M2169.47,2660.34c3.614,0.774 6.969,1.29 10.066,1.548c3.097,0.258 5.936,0.387 8.517,0.387c3.355,0 6.323,-0.387 8.904,-1.161c2.581,-0.774 5.098,-2.775 7.55,-6.001c2.451,-3.226 5.161,-8.194 8.13,-14.905c2.968,-6.71 6.516,-16.001 10.646,-27.874l-82.848,-202.474l43.747,0l62.716,164.922l55.748,-164.922l40.263,0l-92.526,249.318c-5.162,13.937 -12.905,24.261 -23.229,30.971c-10.323,6.711 -22.325,10.066 -36.004,10.066c-7.484,-0 -14.711,-1.032 -21.68,-3.097l0,-36.778Z" style="fill:#ff006c;fill-rule:nonzero;"/><path d="M2458.66,2616.21c-16.002,-0 -30.391,-2.839 -43.166,-8.517c-12.776,-5.678 -23.68,-13.292 -32.714,-22.842c-9.033,-9.549 -16.001,-20.712 -20.905,-33.487c-4.904,-12.776 -7.356,-26.132 -7.356,-40.069c0,-13.937 2.452,-27.293 7.356,-40.069c4.904,-12.776 11.937,-23.938 21.099,-33.488c9.162,-9.549 20.131,-17.163 32.907,-22.841c12.775,-5.678 27.035,-8.517 42.779,-8.517c15.743,0 30.003,2.839 42.779,8.517c12.775,5.678 23.744,13.292 32.906,22.841c9.163,9.55 16.196,20.712 21.1,33.488c4.903,12.776 7.355,26.132 7.355,40.069c0,13.937 -2.452,27.293 -7.355,40.069c-4.904,12.775 -11.937,23.938 -21.1,33.487c-9.162,9.55 -20.131,17.164 -32.906,22.842c-12.776,5.678 -27.036,8.517 -42.779,8.517Zm-60.394,-104.528c-0,9.808 1.548,18.841 4.646,27.1c3.097,8.259 7.355,15.421 12.775,21.486c5.42,6.065 11.808,10.84 19.164,14.324c7.355,3.484 15.292,5.227 23.809,5.227c8.517,-0 16.453,-1.743 23.809,-5.227c7.355,-3.484 13.743,-8.323 19.163,-14.518c5.42,-6.194 9.679,-13.42 12.776,-21.679c3.097,-8.259 4.645,-17.293 4.645,-27.1c0,-9.55 -1.548,-18.518 -4.645,-26.906c-3.097,-8.388 -7.356,-15.679 -12.776,-21.874c-5.42,-6.194 -11.808,-11.033 -19.163,-14.517c-7.356,-3.485 -15.292,-5.227 -23.809,-5.227c-8.259,0 -16.067,1.807 -23.422,5.42c-7.356,3.613 -13.744,8.517 -19.164,14.711c-5.42,6.195 -9.743,13.486 -12.969,21.874c-3.226,8.388 -4.839,17.357 -4.839,26.906Z" style="fill:#ff006c;fill-rule:nonzero;"/><path d="M2661.91,2616.21c-20.906,-0 -36.778,-6.904 -47.618,-20.712c-10.84,-13.808 -16.26,-34.391 -16.26,-61.749l-0,-123.885l42.585,0l0,115.368c0,36.391 12.776,54.587 38.327,54.587c12.389,-0 24.003,-3.743 34.843,-11.227c10.84,-7.485 19.228,-18.325 25.164,-32.52l-0,-126.208l42.585,0l0,152.146c0,4.904 0.903,8.388 2.71,10.453c1.807,2.065 5.033,3.226 9.679,3.484l-0,36.391c-4.646,0.775 -8.647,1.291 -12.002,1.549c-3.355,0.258 -6.323,0.387 -8.904,0.387c-16.002,-1.29 -25.035,-8.646 -27.1,-22.067l-0.774,-20.905c-9.033,14.711 -20.777,25.873 -35.23,33.487c-14.453,7.614 -30.455,11.421 -48.005,11.421Z" style="fill:#ff006c;fill-rule:nonzero;"/><path d="M2950.33,2446.64c-16.518,0.516 -31.1,4.323 -43.747,11.42c-12.646,7.098 -21.809,17.228 -27.487,30.391l0,123.884l-42.585,0l-0,-202.474l39.488,0l0,45.296c7.227,-13.937 16.454,-25.293 27.681,-34.069c11.227,-8.775 23.163,-13.162 35.81,-13.162l6.388,-0c1.677,-0 3.161,0.129 4.452,0.387l-0,38.327Z" style="fill:#ff006c;fill-rule:nonzero;"/><path d="M3249.97,2612.33l-42.585,0l-0,-113.432c-0,-19.098 -3.097,-32.971 -9.292,-41.617c-6.194,-8.646 -15.098,-12.969 -26.712,-12.969c-6.195,-0 -12.453,1.161 -18.777,3.484c-6.323,2.323 -12.195,5.614 -17.614,9.872c-5.42,4.259 -10.26,9.291 -14.518,15.098c-4.259,5.808 -7.549,12.195 -9.872,19.164l-0,120.4l-42.586,0l0,-202.474l38.714,0l0,40.65c7.743,-13.679 18.97,-24.454 33.681,-32.326c14.712,-7.872 30.972,-11.808 48.78,-11.808c12.13,0 22.132,2.194 30.003,6.581c7.872,4.388 14.066,10.389 18.583,18.002c4.517,7.614 7.678,16.389 9.485,26.326c1.807,9.936 2.71,20.454 2.71,31.552l-0,123.497Z" style="fill:#ff006c;fill-rule:nonzero;"/><path d="M3297.98,2612.33l0,-202.474l42.586,0l-0,202.474l-42.586,0Zm0,-235.768l0,-46.844l42.586,0l-0,46.844l-42.586,0Z" style="fill:#ff006c;fill-rule:nonzero;"/><path d="M3378.12,2510.9c0,-14.195 2.452,-27.616 7.356,-40.263c4.904,-12.646 11.937,-23.744 21.099,-33.294c9.162,-9.549 20.196,-17.098 33.1,-22.647c12.905,-5.549 27.358,-8.324 43.36,-8.324c20.906,0 38.908,4.581 54.006,13.744c15.098,9.162 26.39,21.357 33.875,36.584l-41.424,13.163c-4.904,-8.517 -11.485,-15.163 -19.744,-19.938c-8.259,-4.774 -17.422,-7.162 -27.487,-7.162c-8.517,0 -16.454,1.678 -23.809,5.033c-7.356,3.355 -13.744,8.065 -19.164,14.131c-5.42,6.065 -9.678,13.227 -12.775,21.486c-3.098,8.259 -4.646,17.421 -4.646,27.487c-0,9.807 1.613,18.905 4.839,27.293c3.226,8.388 7.614,15.679 13.163,21.873c5.549,6.195 12.001,11.034 19.357,14.518c7.356,3.484 15.163,5.227 23.422,5.227c5.162,-0 10.324,-0.71 15.485,-2.13c5.162,-1.419 9.872,-3.419 14.131,-6c4.259,-2.581 8.001,-5.549 11.227,-8.905c3.226,-3.355 5.614,-6.968 7.162,-10.839l41.811,12.388c-6.71,15.227 -17.937,27.68 -33.681,37.359c-15.744,9.678 -34.326,14.518 -55.748,14.518c-15.744,-0 -30.068,-2.839 -42.973,-8.517c-12.904,-5.678 -23.938,-13.357 -33.1,-23.035c-9.162,-9.679 -16.26,-20.841 -21.293,-33.488c-5.032,-12.646 -7.549,-26.067 -7.549,-40.262Z" style="fill:#ff006c;fill-rule:nonzero;"/><path d="M3788.87,2612.33l-42.585,0l-0,-113.432c-0,-18.582 -3.355,-32.326 -10.066,-41.23c-6.71,-8.904 -16.26,-13.356 -28.648,-13.356c-5.678,-0 -11.485,1.161 -17.421,3.484c-5.936,2.323 -11.55,5.614 -16.841,9.872c-5.291,4.259 -10.066,9.291 -14.324,15.098c-4.259,5.808 -7.42,12.195 -9.485,19.164l0,120.4l-42.585,0l-0,-282.612l42.585,0l0,120.788c8.001,-13.937 18.647,-24.777 31.939,-32.52c13.292,-7.743 27.81,-11.614 43.553,-11.614c12.389,0 22.712,2.258 30.971,6.775c8.259,4.517 14.841,10.517 19.745,18.002c4.903,7.485 8.323,16.195 10.259,26.132c1.935,9.936 2.903,20.454 2.903,31.552l0,123.497Z" style="fill:#ff006c;fill-rule:nonzero;"/><path d="M3929.4,2616.21c-15.744,-0 -30.068,-2.775 -42.973,-8.324c-12.904,-5.549 -23.938,-13.098 -33.1,-22.647c-9.162,-9.55 -16.26,-20.648 -21.293,-33.294c-5.033,-12.647 -7.549,-26.068 -7.549,-40.263c0,-14.195 2.516,-27.68 7.549,-40.456c5.033,-12.776 12.131,-24.003 21.293,-33.681c9.162,-9.679 20.196,-17.292 33.1,-22.841c12.905,-5.549 27.358,-8.324 43.36,-8.324c15.744,0 30.003,2.839 42.779,8.517c12.776,5.678 23.68,13.227 32.713,22.648c9.034,9.42 15.938,20.389 20.712,32.907c4.775,12.517 7.162,25.615 7.162,39.294c0,3.097 -0.129,6.001 -0.387,8.711c-0.258,2.71 -0.516,4.968 -0.774,6.775l-162.212,-0c0.775,9.033 2.904,17.163 6.388,24.39c3.484,7.226 8.001,13.485 13.55,18.776c5.549,5.291 11.872,9.356 18.97,12.195c7.098,2.839 14.518,4.258 22.26,4.258c5.679,0 11.292,-0.709 16.841,-2.129c5.549,-1.419 10.646,-3.484 15.292,-6.194c4.646,-2.71 8.775,-6.001 12.389,-9.872c3.613,-3.872 6.452,-8.13 8.517,-12.776l36.391,10.453c-6.969,15.227 -18.518,27.68 -34.649,37.359c-16.131,9.678 -34.907,14.518 -56.329,14.518Zm61.555,-120.401c-0.774,-8.517 -2.903,-16.389 -6.388,-23.615c-3.484,-7.227 -7.936,-13.357 -13.356,-18.389c-5.42,-5.033 -11.743,-8.969 -18.97,-11.808c-7.226,-2.839 -14.84,-4.259 -22.841,-4.259c-8.001,0 -15.55,1.42 -22.648,4.259c-7.097,2.839 -13.356,6.775 -18.776,11.808c-5.42,5.032 -9.808,11.162 -13.163,18.389c-3.355,7.226 -5.42,15.098 -6.194,23.615l122.336,0Z" style="fill:#ff006c;fill-rule:nonzero;"/><rect x="4065.68" y="2562.78" width="35.23" height="49.554" style="fill:#ff006c;fill-rule:nonzero;"/></g></g></svg>
