<?xml version="1.0" encoding="UTF-8" standalone="no"?><!DOCTYPE svg PUBLIC "-//W3C//DTD SVG 1.1//EN" "http://www.w3.org/Graphics/SVG/1.1/DTD/svg11.dtd"><svg width="100%" height="100%" viewBox="0 0 12794 3353" version="1.1" xmlns="http://www.w3.org/2000/svg" xmlns:xlink="http://www.w3.org/1999/xlink" xml:space="preserve" xmlns:serif="http://www.serif.com/" style="fill-rule:evenodd;clip-rule:evenodd;stroke-linejoin:round;stroke-miterlimit:2;"><rect id="Wordmark-3-no-bg" serif:id="Wordmark 3 no bg" x="0.002" y="0.001" width="12792.5" height="3350.99" style="fill:none;"/><g><g><path d="M1706.35,2011.57c99.97,0 172.476,-31.035 217.517,-93.104c45.042,-62.069 67.563,-155.173 67.563,-279.312c-0,-61.52 -5.493,-114.252 -16.479,-158.194c-10.986,-43.943 -28.838,-79.922 -53.555,-107.935c-24.718,-28.014 -56.302,-48.337 -94.752,-60.971c-38.45,-12.633 -85.14,-18.95 -140.068,-18.95l-169.73,-0l0,718.466l189.504,0Zm-411.965,186.208l0,-1094.18l423.5,0c73.604,0 141.716,12.359 204.334,37.077c62.619,24.718 116.174,60.147 160.667,106.287c44.492,46.14 79.372,102.167 104.639,168.081c25.267,65.915 37.9,140.618 37.9,224.109c0,83.491 -11.26,159.568 -33.781,228.228c-22.52,68.661 -54.654,127.435 -96.399,176.321c-41.746,48.887 -91.731,86.787 -149.956,113.702c-58.224,26.915 -122.49,40.373 -192.799,40.373l-458.105,-0Z" style="fill:#00ffcf;fill-rule:nonzero;"/><path d="M2825.24,1713.31c-1.099,-29.662 -6.317,-55.753 -15.655,-78.274c-9.338,-22.52 -21.697,-41.196 -37.077,-56.027c-15.38,-14.831 -32.957,-25.816 -52.731,-32.957c-19.774,-7.141 -40.098,-10.711 -60.971,-10.711c-42.844,-0 -79.921,15.655 -111.23,46.964c-31.31,31.309 -49.161,74.977 -53.556,131.005l331.22,-0Zm-337.811,135.124c3.296,61.52 21.147,110.407 53.555,146.659c32.408,36.253 74.978,54.38 127.709,54.38c35.155,-0 66.189,-7.965 93.104,-23.894c26.915,-15.93 44.218,-38.176 51.908,-66.738l220.813,-0c-25.267,83.491 -69.21,147.757 -131.829,192.799c-62.618,45.041 -137.321,67.562 -224.109,67.562c-270.248,0 -405.373,-147.209 -405.373,-441.626c0,-62.618 8.789,-119.195 26.366,-169.729c17.577,-50.535 43.119,-93.928 76.625,-130.181c33.507,-36.253 74.429,-63.992 122.766,-83.217c48.337,-19.225 103.815,-28.837 166.434,-28.837c125.237,-0 219.989,40.097 284.255,120.293c64.267,80.196 96.4,201.039 96.4,362.529l-558.624,0Z" style="fill:#00ffcf;fill-rule:nonzero;"/><path d="M3599.73,1632.56c-5.493,-37.352 -19.499,-64.542 -42.02,-81.569c-22.521,-17.028 -56.851,-25.542 -102.991,-25.542c-43.943,-0 -77.175,5.218 -99.696,15.654c-22.52,10.437 -33.781,28.289 -33.781,53.556c0,21.971 11.261,39.548 33.781,52.731c22.521,13.183 55.204,25.817 98.048,37.901c70.308,19.774 129.631,36.528 177.969,50.26c48.337,13.732 87.061,29.936 116.174,48.612c29.112,18.675 49.985,42.02 62.618,70.034c12.634,28.013 18.951,65.639 18.951,112.878c-0,72.506 -30.211,132.652 -90.633,180.44c-60.421,47.788 -149.955,71.682 -268.601,71.682c-58.224,0 -110.955,-6.591 -158.194,-19.774c-47.239,-13.183 -87.611,-32.133 -121.118,-56.851c-33.506,-24.718 -59.322,-54.38 -77.449,-88.985c-18.126,-34.605 -27.739,-73.329 -28.837,-116.174l220.813,0c-0,38.45 15.105,68.112 45.316,88.985c30.21,20.873 69.484,31.309 117.822,31.309c40.647,0 75.526,-6.317 104.639,-18.95c29.112,-12.634 43.668,-32.134 43.668,-58.499c-0,-29.662 -10.711,-51.084 -32.133,-64.267c-21.423,-13.183 -54.105,-24.718 -98.048,-34.605c-79.097,-17.577 -142.814,-35.978 -191.152,-55.203c-48.337,-19.225 -85.963,-40.373 -112.878,-63.443c-26.915,-23.07 -45.041,-48.337 -54.379,-75.801c-9.338,-27.464 -14.007,-58.224 -14.007,-92.28c0,-30.76 6.317,-59.872 18.95,-87.337c12.634,-27.464 32.683,-51.633 60.147,-72.505c27.465,-20.873 63.168,-37.627 107.111,-50.26c43.943,-12.634 97.773,-18.95 161.49,-18.95c116.449,-0 201.588,23.619 255.418,70.857c53.83,47.239 83.492,112.604 88.985,196.096l-205.983,-0Z" style="fill:#00ffcf;fill-rule:nonzero;"/><path d="M3886.46,2197.78l-0,-810.746l214.221,-0l0,810.746l-214.221,-0Zm-0,-907.97l-0,-199.391l214.221,0l0,199.391l-214.221,0Z" style="fill:#00ffcf;fill-rule:nonzero;"/><path d="M4580.21,2051.42c52.731,-0 96.4,-20.502 131.005,-61.504c34.605,-41.003 51.907,-96.891 51.907,-167.663c0,-177.492 -60.971,-266.238 -182.912,-266.238c-121.942,0 -182.912,84.253 -182.912,252.758c-0,74.142 17.302,133.119 51.907,176.93c34.605,43.811 78.273,65.717 131.005,65.717Zm176.321,53.921c-15.38,37.072 -43.119,65.998 -83.217,86.781c-40.098,20.782 -86.513,31.173 -139.244,31.173c-67.013,-0 -123.315,-12.076 -168.906,-36.229c-45.59,-24.152 -82.392,-55.887 -110.406,-95.205c-28.014,-39.318 -48.337,-84.814 -60.971,-136.489c-12.633,-51.675 -18.95,-104.473 -18.95,-158.395c-0,-64.032 9.338,-122.727 28.013,-176.087c18.676,-53.36 43.943,-98.857 75.802,-136.489c31.858,-37.633 69.21,-66.841 112.054,-87.623c42.845,-20.782 88.985,-31.173 138.42,-31.173c101.069,-0 176.87,41.564 227.405,124.693l-0,-102.788l214.221,0l0,837.47c0,62.909 -10.436,118.234 -31.309,165.977c-20.873,47.743 -49.436,87.623 -85.689,119.639c-36.252,32.016 -79.097,56.449 -128.533,73.3c-49.435,16.85 -102.167,25.275 -158.194,25.275c-56.027,0 -108.209,-8.144 -156.546,-24.433c-48.338,-16.289 -89.809,-39.318 -124.414,-69.087c-34.605,-29.769 -61.794,-65.998 -81.569,-108.686c-19.774,-42.688 -29.661,-90.992 -29.661,-144.914l199.391,0c-0,50.552 16.204,89.589 48.611,117.111c32.408,27.523 75.527,41.284 129.357,41.284c57.126,-0 105.463,-16.008 145.012,-48.024c39.548,-32.016 59.323,-75.547 59.323,-130.591l-0,-136.49Z" style="fill:#00ffcf;fill-rule:nonzero;"/><path d="M5575.52,2197.78l0,-491.062c0,-62.618 -10.436,-104.913 -31.309,-126.885c-20.873,-21.971 -56.576,-32.957 -107.111,-32.957c-110.956,-0 -166.433,62.069 -166.433,186.208l-0,464.696l-214.222,-0l-0,-810.746l204.334,-0l0,118.646c25.268,-46.141 58.774,-81.02 100.52,-104.64c41.746,-23.619 95.576,-35.428 161.49,-35.428c38.45,-0 74.154,5.767 107.111,17.302c32.957,11.535 61.245,28.838 84.864,51.908c23.62,23.07 42.295,51.358 56.028,84.864c13.732,33.507 20.598,72.231 20.598,116.174l-0,561.92l-215.87,-0Z" style="fill:#00ffcf;fill-rule:nonzero;"/><rect x="6279.15" y="1103.6" width="229.052" height="1094.18" style="fill:#00ffcf;fill-rule:nonzero;"/><path d="M7106.38,2197.78l-0,-491.062c-0,-62.618 -10.437,-104.913 -31.31,-126.885c-20.872,-21.971 -56.576,-32.957 -107.11,-32.957c-110.956,-0 -166.434,62.069 -166.434,186.208l-0,464.696l-214.222,-0l0,-810.746l204.335,-0l-0,118.646c25.267,-46.141 58.773,-81.02 100.519,-104.64c41.746,-23.619 95.576,-35.428 161.49,-35.428c38.45,-0 74.154,5.767 107.111,17.302c32.957,11.535 61.245,28.838 84.865,51.908c23.619,23.07 42.295,51.358 56.027,84.864c13.732,33.507 20.598,72.231 20.598,116.174l0,561.92l-215.869,-0Z" style="fill:#00ffcf;fill-rule:nonzero;"/><path d="M7927.01,2197.78l0,-491.062c0,-62.618 -10.436,-104.913 -31.309,-126.885c-20.873,-21.971 -56.577,-32.957 -107.111,-32.957c-110.956,-0 -166.434,62.069 -166.434,186.208l0,464.696l-214.221,-0l-0,-810.746l204.334,-0l0,118.646c25.267,-46.141 58.774,-81.02 100.52,-104.64c41.745,-23.619 95.575,-35.428 161.49,-35.428c38.45,-0 74.153,5.767 107.11,17.302c32.958,11.535 61.246,28.838 84.865,51.908c23.62,23.07 42.295,51.358 56.027,84.864c13.733,33.507 20.599,72.231 20.599,116.174l-0,561.92l-215.87,-0Z" style="fill:#00ffcf;fill-rule:nonzero;"/><path d="M8716.33,1632.56c-5.493,-37.352 -19.499,-64.542 -42.02,-81.569c-22.521,-17.028 -56.851,-25.542 -102.991,-25.542c-43.943,-0 -77.175,5.218 -99.696,15.654c-22.52,10.437 -33.781,28.289 -33.781,53.556c0,21.971 11.261,39.548 33.781,52.731c22.521,13.183 55.204,25.817 98.048,37.901c70.309,19.774 129.631,36.528 177.969,50.26c48.337,13.732 87.061,29.936 116.174,48.612c29.112,18.675 49.985,42.02 62.618,70.034c12.634,28.013 18.951,65.639 18.951,112.878c-0,72.506 -30.211,132.652 -90.633,180.44c-60.421,47.788 -149.955,71.682 -268.601,71.682c-58.224,0 -110.955,-6.591 -158.194,-19.774c-47.238,-13.183 -87.611,-32.133 -121.117,-56.851c-33.507,-24.718 -59.323,-54.38 -77.45,-88.985c-18.126,-34.605 -27.739,-73.329 -28.837,-116.174l220.813,0c-0,38.45 15.105,68.112 45.316,88.985c30.211,20.873 69.484,31.309 117.822,31.309c40.647,0 75.526,-6.317 104.639,-18.95c29.112,-12.634 43.668,-32.134 43.668,-58.499c-0,-29.662 -10.711,-51.084 -32.133,-64.267c-21.423,-13.183 -54.105,-24.718 -98.048,-34.605c-79.097,-17.577 -142.814,-35.978 -191.151,-55.203c-48.338,-19.225 -85.964,-40.373 -112.879,-63.443c-26.915,-23.07 -45.041,-48.337 -54.379,-75.801c-9.338,-27.464 -14.007,-58.224 -14.007,-92.28c0,-30.76 6.317,-59.872 18.95,-87.337c12.634,-27.464 32.683,-51.633 60.147,-72.505c27.465,-20.873 63.168,-37.627 107.111,-50.26c43.943,-12.634 97.773,-18.95 161.49,-18.95c116.449,-0 201.588,23.619 255.418,70.857c53.83,47.239 83.492,112.604 88.985,196.096l-205.983,-0Z" style="fill:#00ffcf;fill-rule:nonzero;"/><path d="M9705.05,1848.43c3.296,61.52 21.148,110.407 53.556,146.659c32.408,36.253 74.977,54.38 127.709,54.38c35.154,-0 66.189,-7.965 93.104,-23.894c26.915,-15.93 44.217,-38.176 51.907,-66.738l220.813,-0c-25.267,83.491 -69.21,147.757 -131.828,192.799c-62.619,45.041 -137.322,67.562 -224.109,67.562c-61.52,0 -121.118,-9.887 -178.793,-29.661c-57.675,-19.775 -106.836,-55.478 -147.483,-107.111c-39.549,46.14 -84.865,80.47 -135.948,102.991c-51.084,22.521 -113.428,33.781 -187.032,33.781c-93.379,0 -161.765,-20.598 -205.159,-61.795c-43.393,-41.196 -65.09,-94.751 -65.09,-160.666c-0,-58.224 9.338,-104.639 28.014,-139.244c18.675,-34.605 44.492,-61.794 77.449,-81.569c32.957,-19.774 72.231,-34.33 117.822,-43.668c45.59,-9.338 95.301,-17.852 149.131,-25.542c53.83,-7.69 90.083,-17.852 108.759,-30.485c18.675,-12.634 28.013,-33.232 28.013,-61.795c0,-26.366 -12.359,-46.964 -37.077,-61.795c-24.718,-14.83 -57.949,-22.246 -99.695,-22.246c-49.436,0 -84.865,10.986 -106.287,32.958c-21.422,21.971 -34.88,51.083 -40.373,87.336l-199.39,0c1.098,-41.746 7.964,-80.196 20.598,-115.35c12.633,-35.154 32.957,-65.365 60.971,-90.632c28.013,-25.267 64.541,-44.767 109.582,-58.499c45.042,-13.732 99.97,-20.598 164.786,-20.598c63.717,-0 117.273,6.866 160.666,20.598c43.394,13.732 78.823,34.33 106.287,61.794c68.112,-54.928 153.8,-82.392 257.066,-82.392c125.237,-0 219.989,40.097 284.256,120.293c64.266,80.196 96.399,201.039 96.399,362.529l-558.624,0Zm-214.221,-47.788c-10.986,10.986 -26.915,19.774 -47.788,26.366c-20.873,6.591 -51.084,13.732 -90.632,21.422c-61.52,12.084 -103.815,27.464 -126.885,46.14c-23.071,18.676 -34.606,45.591 -34.606,80.745c0,60.422 34.606,90.632 103.816,90.632c27.464,0 53.006,-4.669 76.625,-14.006c23.619,-9.338 43.943,-21.972 60.971,-37.901c17.028,-15.93 30.76,-34.605 41.196,-56.027c10.437,-21.423 15.655,-44.218 15.655,-68.387l1.648,-88.984Zm552.032,-87.336c-1.098,-29.662 -6.317,-55.753 -15.654,-78.274c-9.338,-22.52 -21.697,-41.196 -37.077,-56.027c-15.38,-14.831 -32.957,-25.816 -52.732,-32.957c-19.774,-7.141 -40.098,-10.711 -60.97,-10.711c-42.845,-0 -79.922,15.655 -111.231,46.964c-31.309,31.309 -49.161,74.977 -53.555,131.005l331.219,-0Z" style="fill:#ff006c;fill-rule:nonzero;"/><path d="M10331.2,2197.78l0,-810.746l214.222,-0l0,810.746l-214.222,-0Zm0,-907.97l0,-199.391l214.222,0l0,199.391l-214.222,0Z" style="fill:#00ffcf;fill-rule:nonzero;"/><path d="M11095.8,1663.87l199.391,-0l-0,230.7c-0,42.844 -6.317,83.766 -18.951,122.766c-12.633,38.999 -32.408,73.604 -59.323,103.815c-26.915,30.21 -60.97,54.104 -102.167,71.681c-41.196,17.578 -90.357,26.366 -147.483,26.366c-59.323,0 -109.857,-8.788 -151.603,-26.366c-41.746,-17.577 -76.076,-41.196 -102.991,-70.857c-26.915,-29.662 -46.415,-64.267 -58.499,-103.816c-12.085,-39.548 -18.127,-81.294 -18.127,-125.237l0,-725.057l210.926,-0l0,219.165l448.218,-0l-0,151.603l-448.218,-0l0,332.867c0,51.633 9.613,91.456 28.838,119.47c19.225,28.013 50.809,42.02 94.751,42.02c42.845,0 74.429,-13.732 94.752,-41.196c20.324,-27.465 30.486,-66.464 30.486,-116.998l-0,-210.926Z" style="fill:#00ffcf;fill-rule:nonzero;"/></g><g><path d="M1291.22,2610.94l0,-274.869l183.117,-0l0,38.327l-139.757,-0l-0,82.073l116.916,0l0,36.004l-116.916,0l-0,118.465l-43.36,0Z" style="fill:#00ffcf;fill-rule:nonzero;"/><path d="M1508.02,2610.94l0,-202.474l42.586,0l-0,202.474l-42.586,0Zm0,-235.768l0,-46.844l42.586,0l-0,46.844l-42.586,0Z" style="fill:#00ffcf;fill-rule:nonzero;"/><path d="M1782.5,2610.94l-42.585,0l0,-113.432c0,-19.099 -3.097,-32.971 -9.291,-41.617c-6.195,-8.646 -15.099,-12.97 -26.713,-12.97c-6.194,0 -12.453,1.162 -18.776,3.485c-6.323,2.323 -12.195,5.613 -17.615,9.872c-5.42,4.258 -10.259,9.291 -14.518,15.098c-4.258,5.807 -7.549,12.195 -9.872,19.164l0,120.4l-42.585,0l-0,-202.474l38.714,0l-0,40.65c7.743,-13.679 18.97,-24.455 33.681,-32.326c14.711,-7.872 30.971,-11.808 48.78,-11.808c12.13,-0 22.131,2.194 30.003,6.581c7.872,4.388 14.066,10.388 18.583,18.002c4.516,7.614 7.678,16.389 9.484,26.326c1.807,9.936 2.71,20.454 2.71,31.552l0,123.497Z" style="fill:#00ffcf;fill-rule:nonzero;"/><path d="M1914.51,2614.81c-13.937,0 -26.777,-2.774 -38.52,-8.323c-11.744,-5.549 -21.874,-13.098 -30.391,-22.648c-8.517,-9.549 -15.163,-20.647 -19.938,-33.294c-4.774,-12.646 -7.162,-26.196 -7.162,-40.649c0,-14.454 2.259,-28.068 6.775,-40.844c4.517,-12.775 10.776,-23.873 18.777,-33.294c8.001,-9.42 17.614,-16.905 28.842,-22.454c11.227,-5.549 23.421,-8.323 36.584,-8.323c15.744,-0 29.81,3.871 42.198,11.614c12.389,7.743 22.067,17.808 29.036,30.197l-0,-118.465l42.585,0l0,232.284c0,8.775 4.13,13.421 12.389,13.937l-0,36.391c-4.388,0.774 -8.259,1.29 -11.614,1.549c-3.356,0.258 -6.453,0.387 -9.292,0.387c-16.002,-1.549 -25.035,-8.904 -27.1,-22.067l-0.774,-16.647c-7.743,13.163 -18.066,23.228 -30.971,30.197c-12.905,6.968 -26.713,10.452 -41.424,10.452Zm10.84,-36.391c5.42,0 11.098,-1.032 17.034,-3.097c5.936,-2.065 11.485,-4.904 16.647,-8.517c5.162,-3.613 9.679,-7.872 13.55,-12.775c3.871,-4.904 6.581,-10.195 8.13,-15.873l-0,-53.038c-2.323,-6.195 -5.549,-11.937 -9.679,-17.228c-4.129,-5.291 -8.839,-9.937 -14.13,-13.937c-5.291,-4.001 -10.905,-7.098 -16.841,-9.291c-5.936,-2.194 -11.872,-3.291 -17.808,-3.291c-9.033,-0 -17.228,1.936 -24.584,5.807c-7.355,3.871 -13.678,9.033 -18.969,15.486c-5.291,6.452 -9.356,13.872 -12.195,22.26c-2.839,8.388 -4.259,16.97 -4.259,25.745c0,9.291 1.613,18.066 4.839,26.325c3.227,8.259 7.614,15.421 13.163,21.487c5.549,6.065 12.195,10.904 19.938,14.517c7.743,3.614 16.131,5.42 25.164,5.42Z" style="fill:#00ffcf;fill-rule:nonzero;"/><path d="M2168.87,2658.94c3.613,0.775 6.968,1.291 10.065,1.549c3.097,0.258 5.936,0.387 8.517,0.387c3.356,0 6.324,-0.387 8.905,-1.161c2.581,-0.775 5.097,-2.775 7.549,-6.001c2.452,-3.226 5.162,-8.195 8.13,-14.905c2.968,-6.71 6.517,-16.002 10.646,-27.874l-82.848,-202.474l43.747,0l62.717,164.921l55.748,-164.921l40.262,0l-92.526,249.318c-5.162,13.937 -12.905,24.261 -23.228,30.971c-10.324,6.711 -22.326,10.066 -36.004,10.066c-7.485,-0 -14.712,-1.033 -21.68,-3.097l-0,-36.779Z" style="fill:#00ffcf;fill-rule:nonzero;"/><path d="M2458.06,2614.81c-16.002,0 -30.39,-2.839 -43.166,-8.517c-12.776,-5.678 -23.68,-13.291 -32.713,-22.841c-9.034,-9.549 -16.002,-20.712 -20.906,-33.487c-4.904,-12.776 -7.356,-26.132 -7.356,-40.069c0,-13.937 2.452,-27.294 7.356,-40.069c4.904,-12.776 11.937,-23.938 21.099,-33.488c9.162,-9.549 20.131,-17.163 32.907,-22.841c12.776,-5.678 27.035,-8.517 42.779,-8.517c15.744,-0 30.003,2.839 42.779,8.517c12.776,5.678 23.744,13.292 32.907,22.841c9.162,9.55 16.195,20.712 21.099,33.488c4.904,12.775 7.356,26.132 7.356,40.069c-0,13.937 -2.452,27.293 -7.356,40.069c-4.904,12.775 -11.937,23.938 -21.099,33.487c-9.163,9.55 -20.131,17.163 -32.907,22.841c-12.776,5.678 -27.035,8.517 -42.779,8.517Zm-60.394,-104.527c0,9.807 1.549,18.841 4.646,27.1c3.097,8.258 7.356,15.421 12.775,21.486c5.42,6.065 11.808,10.84 19.164,14.324c7.356,3.484 15.292,5.226 23.809,5.226c8.517,0 16.453,-1.742 23.809,-5.226c7.356,-3.484 13.744,-8.324 19.163,-14.518c5.42,-6.194 9.679,-13.421 12.776,-21.68c3.097,-8.259 4.646,-17.292 4.646,-27.099c-0,-9.55 -1.549,-18.519 -4.646,-26.907c-3.097,-8.388 -7.356,-15.679 -12.776,-21.873c-5.419,-6.194 -11.807,-11.033 -19.163,-14.518c-7.356,-3.484 -15.292,-5.226 -23.809,-5.226c-8.259,-0 -16.066,1.807 -23.422,5.42c-7.356,3.613 -13.743,8.517 -19.163,14.711c-5.42,6.194 -9.743,13.486 -12.97,21.874c-3.226,8.388 -4.839,17.356 -4.839,26.906Z" style="fill:#00ffcf;fill-rule:nonzero;"/><path d="M2661.31,2614.81c-20.905,0 -36.778,-6.904 -47.618,-20.712c-10.84,-13.808 -16.26,-34.39 -16.26,-61.748l0,-123.885l42.586,0l-0,115.368c-0,36.391 12.775,54.586 38.326,54.586c12.389,0 24.003,-3.742 34.843,-11.227c10.84,-7.484 19.228,-18.324 25.164,-32.519l0,-126.208l42.585,0l0,152.146c0,4.904 0.904,8.388 2.71,10.453c1.807,2.064 5.033,3.226 9.679,3.484l-0,36.391c-4.646,0.774 -8.646,1.29 -12.001,1.549c-3.356,0.258 -6.324,0.387 -8.905,0.387c-16.001,-1.291 -25.035,-8.646 -27.099,-22.067l-0.775,-20.906c-9.033,14.712 -20.776,25.874 -35.229,33.488c-14.454,7.614 -30.455,11.42 -48.006,11.42Z" style="fill:#00ffcf;fill-rule:nonzero;"/><path d="M2949.72,2445.24c-16.518,0.516 -31.1,4.323 -43.747,11.421c-12.646,7.097 -21.808,17.228 -27.486,30.39l-0,123.885l-42.586,0l0,-202.474l39.488,0l0,45.295c7.227,-13.937 16.454,-25.293 27.681,-34.068c11.227,-8.775 23.164,-13.163 35.81,-13.163l6.388,0c1.678,0 3.162,0.129 4.452,0.387l0,38.327Z" style="fill:#00ffcf;fill-rule:nonzero;"/><path d="M3249.37,2610.94l-42.585,0l-0,-113.432c-0,-19.099 -3.097,-32.971 -9.291,-41.617c-6.195,-8.646 -15.099,-12.97 -26.713,-12.97c-6.194,0 -12.453,1.162 -18.776,3.485c-6.324,2.323 -12.195,5.613 -17.615,9.872c-5.42,4.258 -10.259,9.291 -14.518,15.098c-4.258,5.807 -7.549,12.195 -9.872,19.164l0,120.4l-42.585,0l-0,-202.474l38.714,0l-0,40.65c7.742,-13.679 18.969,-24.455 33.681,-32.326c14.711,-7.872 30.971,-11.808 48.779,-11.808c12.131,-0 22.132,2.194 30.004,6.581c7.871,4.388 14.066,10.388 18.582,18.002c4.517,7.614 7.679,16.389 9.485,26.326c1.807,9.936 2.71,20.454 2.71,31.552l0,123.497Z" style="fill:#00ffcf;fill-rule:nonzero;"/><path d="M3297.38,2610.94l-0,-202.474l42.585,0l-0,202.474l-42.585,0Zm-0,-235.768l-0,-46.844l42.585,0l-0,46.844l-42.585,0Z" style="fill:#00ffcf;fill-rule:nonzero;"/><path d="M3377.51,2509.51c0,-14.195 2.452,-27.615 7.356,-40.262c4.904,-12.647 11.937,-23.745 21.099,-33.294c9.163,-9.549 20.196,-17.099 33.101,-22.648c12.904,-5.549 27.358,-8.323 43.359,-8.323c20.906,-0 38.908,4.581 54.006,13.743c15.099,9.163 26.39,21.357 33.875,36.585l-41.424,13.163c-4.904,-8.517 -11.485,-15.163 -19.744,-19.938c-8.259,-4.775 -17.421,-7.162 -27.487,-7.162c-8.517,-0 -16.453,1.678 -23.809,5.033c-7.356,3.355 -13.744,8.065 -19.164,14.13c-5.419,6.065 -9.678,13.228 -12.775,21.487c-3.097,8.259 -4.646,17.421 -4.646,27.486c0,9.808 1.613,18.906 4.839,27.294c3.227,8.388 7.614,15.679 13.163,21.873c5.549,6.194 12.002,11.034 19.357,14.518c7.356,3.484 15.163,5.226 23.422,5.226c5.162,0 10.324,-0.709 15.486,-2.129c5.162,-1.419 9.872,-3.42 14.13,-6.001c4.259,-2.581 8.001,-5.549 11.227,-8.904c3.227,-3.355 5.614,-6.968 7.162,-10.84l41.812,12.389c-6.711,15.227 -17.938,27.68 -33.682,37.359c-15.743,9.678 -34.326,14.517 -55.748,14.517c-15.743,0 -30.068,-2.839 -42.972,-8.517c-12.905,-5.678 -23.938,-13.356 -33.101,-23.034c-9.162,-9.679 -16.26,-20.841 -21.292,-33.488c-5.033,-12.647 -7.55,-26.067 -7.55,-40.263Z" style="fill:#00ffcf;fill-rule:nonzero;"/><path d="M3788.27,2610.94l-42.586,0l0,-113.432c0,-18.583 -3.355,-32.326 -10.065,-41.23c-6.711,-8.904 -16.26,-13.357 -28.649,-13.357c-5.678,0 -11.485,1.162 -17.421,3.485c-5.936,2.323 -11.55,5.613 -16.841,9.872c-5.291,4.258 -10.065,9.291 -14.324,15.098c-4.258,5.807 -7.42,12.195 -9.485,19.164l0,120.4l-42.585,0l-0,-282.612l42.585,0l0,120.788c8.001,-13.937 18.648,-24.777 31.939,-32.52c13.292,-7.743 27.81,-11.614 43.553,-11.614c12.389,-0 22.713,2.258 30.972,6.775c8.259,4.516 14.84,10.517 19.744,18.002c4.904,7.484 8.323,16.195 10.259,26.132c1.936,9.936 2.904,20.454 2.904,31.552l-0,123.497Z" style="fill:#00ffcf;fill-rule:nonzero;"/><path d="M3928.8,2614.81c-15.743,0 -30.068,-2.774 -42.972,-8.323c-12.905,-5.549 -23.938,-13.098 -33.101,-22.648c-9.162,-9.549 -16.26,-20.647 -21.292,-33.294c-5.033,-12.646 -7.55,-26.067 -7.55,-40.262c0,-14.195 2.517,-27.681 7.55,-40.456c5.032,-12.776 12.13,-24.003 21.292,-33.681c9.163,-9.679 20.196,-17.293 33.101,-22.842c12.904,-5.549 27.358,-8.323 43.359,-8.323c15.744,-0 30.004,2.839 42.779,8.517c12.776,5.678 23.68,13.227 32.714,22.648c9.033,9.42 15.937,20.389 20.712,32.906c4.774,12.518 7.162,25.616 7.162,39.295c-0,3.097 -0.129,6.001 -0.388,8.711c-0.258,2.71 -0.516,4.968 -0.774,6.775l-162.211,-0c0.774,9.033 2.903,17.163 6.387,24.389c3.485,7.227 8.001,13.486 13.55,18.777c5.549,5.291 11.873,9.356 18.97,12.195c7.098,2.839 14.518,4.258 22.261,4.258c5.678,0 11.291,-0.71 16.84,-2.129c5.549,-1.42 10.647,-3.484 15.292,-6.194c4.646,-2.71 8.775,-6.001 12.389,-9.872c3.613,-3.872 6.452,-8.13 8.517,-12.776l36.391,10.453c-6.969,15.227 -18.518,27.68 -34.649,37.359c-16.131,9.678 -34.907,14.517 -56.329,14.517Zm61.555,-120.4c-0.774,-8.517 -2.903,-16.389 -6.387,-23.615c-3.485,-7.227 -7.937,-13.357 -13.357,-18.39c-5.42,-5.032 -11.743,-8.968 -18.97,-11.807c-7.226,-2.839 -14.84,-4.259 -22.841,-4.259c-8.001,0 -15.55,1.42 -22.647,4.259c-7.098,2.839 -13.357,6.775 -18.777,11.807c-5.42,5.033 -9.807,11.163 -13.162,18.39c-3.356,7.226 -5.42,15.098 -6.195,23.615l122.336,0Z" style="fill:#00ffcf;fill-rule:nonzero;"/><rect x="4065.07" y="2561.38" width="35.23" height="49.554" style="fill:#00ffcf;fill-rule:nonzero;"/></g></g></svg>
